<?xml version="1.0" encoding="UTF-8"?>
<!DOCTYPE svg PUBLIC "-//W3C//DTD SVG 1.1//EN" "http://www.w3.org/Graphics/SVG/1.1/DTD/svg11.dtd">
<!-- Creator: CorelDRAW -->
<svg xmlns="http://www.w3.org/2000/svg" xml:space="preserve" width="158.75mm" height="79.375mm" style="shape-rendering:geometricPrecision; text-rendering:geometricPrecision; image-rendering:optimizeQuality; fill-rule:evenodd; clip-rule:evenodd"
viewBox="0 0 158.75 79.375"
 xmlns:xlink="http://www.w3.org/1999/xlink">
 <defs>
  <style type="text/css">
   <![CDATA[
    .str0 {stroke:#141516;stroke-width:0.2}
    .str1 {stroke:#1F1A17;stroke-width:0.2}
    .str2 {stroke:#141516;stroke-width:0.3528}
    .fil0 {fill:#141516}
   ]]>
  </style>
 </defs>
 <g id="Capa_x0020_1">
  <metadata id="CorelCorpID_0Corel-Layer"/>
  <g id="_110192376">
   <polygon id="_110192904" class="fil0 str0" points="65.227,22.7099 52.2318,9.5051 39.8654,21.8715 40.4942,52.2635 51.8126,64.0011 65.4366,50.3771 58.1006,42.8315 51.3934,49.5387 51.1838,23.9675 57.6814,30.2555 "/>
   <polygon id="_110190552" class="fil0 str1" points="78.0126,19.9851 67.5326,43.8795 74.4494,44.5083 65.8558,70.4987 90.7982,35.0763 83.8814,35.0763 89.1214,20.6139 "/>
   <polygon id="_110193024" class="fil0 str1" points="147.391,22.9195 140.264,30.2555 133.138,22.9195 133.138,49.9579 139.635,43.4603 146.552,50.5867 133.767,63.1627 123.077,52.6827 123.077,21.6619 134.815,9.9243 "/>
   <polygon id="_110190408" class="fil0 str2" points="24.355,46.0803 27.6038,46.0803 27.7086,52.3683 25.0886,57.3987 31.7958,63.8963 39.9702,55.6171 35.6734,51.7395 35.7782,22.1859 25.6126,10.3435 23.2022,10.2387 11.1502,22.7099 11.5694,51.9491 8.3206,55.6171 16.9142,64.0011 23.5166,57.2939 21.211,52.7875 21.4206,46.1851 24.0406,46.1851 23.7262,35.1811 26.451,35.1811 26.451,27.4259 22.1542,22.7099 22.1542,34.7619 22.0494,35.1811 23.831,35.0763 24.1454,46.1851 "/>
   <polygon id="_110190744" class="fil0 str0" points="104.842,21.1379 104.842,10.1339 109.663,10.0291 119.409,20.1947 119.199,53.2067 109.243,63.3723 97.6106,63.3723 90.4838,55.7219 94.2566,52.0539 94.3614,21.3475 89.6454,17.2603 96.8766,10.2387 98.7626,9.9243 104.842,10.0291 104.737,48.8051 108.824,45.4515 109.034,25.6443 "/>
  </g>
 </g>
</svg>
